<svg xmlns="http://www.w3.org/2000/svg" viewBox="0 0 685.01 245.85"><defs><style>.cls-1{fill:#76777a;}.cls-2{fill:#a0cb00;}</style></defs><g id="Layer_2" data-name="Layer 2"><g id="Camada_1" data-name="Camada 1"><path class="cls-1" d="M622.56,58H560.32V182.48h62.24a62.24,62.24,0,0,0,0-124.47Zm.29,99.62H585.47V82.86h37.38a37.39,37.39,0,1,1,0,74.77Z"/><polygon class="cls-1" points="261.99 115.11 298.36 182.49 324.5 182.49 360.84 115.11 360.86 182.49 386.32 182.49 386.32 57.99 360.86 57.99 311.57 149.2 262.05 57.99 237.12 57.99 237.12 182.49 261.99 182.49 261.99 115.11"/><polygon class="cls-1" points="535.6 157.63 436.36 157.63 436.36 132.68 535.52 132.68 535.6 107.81 436.36 107.81 436.36 82.86 535.6 82.86 535.6 57.99 411.19 57.99 411.19 59.19 411.19 82.86 411.19 107.81 411.19 132.68 411.19 157.63 411.19 177.4 411.19 182.49 535.52 182.49 535.6 157.63"/><path class="cls-1" d="M133.07,221.86c-1.93-9.78-7.19-20.05-15.64-30.19C103,174.32,81,159.44,55.26,149.51a234.11,234.11,0,0,0-26.07,3.26C68.3,170,95.45,198.09,99.7,224.64A97.18,97.18,0,0,0,133.07,221.86Z"/><path class="cls-1" d="M166.57,205.42a87.35,87.35,0,0,0-9.47-13.75c-14.07-16.9-35.31-31.47-60.19-41.4A246.34,246.34,0,0,0,66.58,149c22.36,10.05,41.43,23.81,54.56,39.58,8.86,10.63,14.44,21.49,16.6,31.94A91.39,91.39,0,0,0,166.57,205.42Z"/><path class="cls-1" d="M20.73,154.48l-.14,0c10.3,42.43,41.07,64.8,74.21,69.56C90,198.12,61.27,170.4,20.73,154.48Z"/><path class="cls-1" d="M187.89,180.56c-20.41-13.38-46.14-23-74-27.92,19.06,9.63,35.31,22,46.91,36a92,92,0,0,1,9.52,13.68A82.71,82.71,0,0,0,187.89,180.56Z"/><path class="cls-1" d="M91.7,85.93a6.74,6.74,0,1,0,6.19,7.24A6.73,6.73,0,0,0,91.7,85.93Z"/><path class="cls-1" d="M178.75,121.86a6.74,6.74,0,1,0,6.19,7.24A6.73,6.73,0,0,0,178.75,121.86Z"/><path class="cls-1" d="M155.05,72.18a6.74,6.74,0,1,0-6.19-7.24A6.74,6.74,0,0,0,155.05,72.18Z"/><path class="cls-1" d="M178.24,83.42A9.61,9.61,0,0,0,168.61,93a10.12,10.12,0,0,0,.24,2.15l-10.08,5.65A15.89,15.89,0,0,0,140.12,97l-7.23-9.38a11.47,11.47,0,1,0-5.11,4.16l7.07,9.18a15.9,15.9,0,0,0-4,10.49,16.1,16.1,0,0,0,.68,4.63l-10.12,5.67a9.51,9.51,0,0,0-6-2.11,9.63,9.63,0,1,0,9.61,9.64,10,10,0,0,0-.19-1.91l9.85-5.52a16,16,0,0,0,28.11-10.35,16.18,16.18,0,0,0-.78-4.95l10.38-5.82a9.62,9.62,0,1,0,5.8-17.3Z"/><path class="cls-2" d="M99.37,63.21c-2.93,1.62-5.68.89-8.32-.65-1.53-.9-3-1.93-4.42-3a67.81,67.81,0,0,0-9.38-6.27c-3.61-1.8-9.44-3-14.27-1.4-3.48,1.12-7.31,5.13-6.19,4.41a5.87,5.87,0,0,1,2.79-1,12.94,12.94,0,0,1,4.78.66,43,43,0,0,1,9.92,4.79c.06,0,.09.11.22.28l-.79-.38a41.56,41.56,0,0,0-7.61-3,14.34,14.34,0,0,0-6.63-.57,19,19,0,0,0-2,.64c.07.24.08.34.12.43a21.82,21.82,0,0,0,8.86,10.43,26,26,0,0,0,18.7,3.08A22.75,22.75,0,0,0,97.7,65.48c.65-.66,1.19-1.41,1.79-2.11Z"/><path class="cls-2" d="M56.06,43a5.84,5.84,0,0,1-1.7-2.41,12.91,12.91,0,0,1-.7-4.77,43.54,43.54,0,0,1,1.82-10.87c0-.07.09-.12.21-.29-.06.38-.1.62-.14.86a42.16,42.16,0,0,0-.77,8.16,14.35,14.35,0,0,0,1.31,6.52c.32.61.77,1.14,1.16,1.73a4,4,0,0,0,.39-.25,21.82,21.82,0,0,0,7.54-11.41,26.09,26.09,0,0,0-2.27-18.82,22.73,22.73,0,0,0-9.5-10.28C52.61.69,51.73.37,50.89,0a.91.91,0,0,0-.11.16c2.36,2.35,2.43,5.2,1.69,8.16a50.8,50.8,0,0,1-1.62,5.08,67.52,67.52,0,0,0-3.39,10.76c-.73,4-.21,9.89,2.63,14.09C52.15,41.28,57.06,43.83,56.06,43Z"/><path class="cls-2" d="M201.17,169.69a100.93,100.93,0,0,1-27.58,39.09q-1.89,1.66-3.86,3.21c-1.19.94-2.39,1.86-3.62,2.74a101.33,101.33,0,0,1-25.31,13c-.69.24-1.4.45-2.09.67q-2.4.77-4.81,1.4-3.41.9-6.84,1.6A104.53,104.53,0,0,1,113,233.08a94.9,94.9,0,0,1-12.73-.27c-1.59-.13-3.19-.3-4.78-.51a98,98,0,0,1-74.61-53.55,104.2,104.2,0,0,1-5.37-13.13A114,114,0,0,1,12,151.82c0-.18,0-.36-.08-.54-.12-.68-.22-1.37-.32-2.06a97.76,97.76,0,0,1,2.24-39.94,116.55,116.55,0,0,1,4.7-13.62,108,108,0,0,1,6.59-12.9A112.6,112.6,0,0,1,33.63,70.9,103.22,103.22,0,0,1,69.57,43,36.55,36.55,0,0,0,89.05,53.26c11.3,2,21.71-.61,31.36-6.5a42.92,42.92,0,0,0,11-9.36,34.65,34.65,0,0,0,5-8.09c.62-1.43,1-2.94,1.54-4.41l-.28-.17c-3.64,4.32-8.42,4.84-13.51,4-3-.49-5.89-1.22-8.79-2-6.14-1.65-12.22-3.56-18.59-4.18C90,21.9,80.07,23.62,73.4,29,68.59,32.88,65,41.53,66.32,39.71a10,10,0,0,1,3.81-3.21,21.72,21.72,0,0,1,7.93-1.84,62.11,62.11,0,0,1,13.08.61c-1.49.21-3,.45-4.43.72-1.63,0-3.25.08-4.88.25-3.78.38-7.51,1.06-10.79,3.13a14.9,14.9,0,0,0-1.69,1.3A106,106,0,0,0,49.27,50.6,101.67,101.67,0,0,0,29,66.77a111.69,111.69,0,0,0-9.88,12,117.56,117.56,0,0,0-8,13.39,104.89,104.89,0,0,0-5.93,14.53A111.11,111.11,0,0,0,1.42,122,100.82,100.82,0,0,0,0,139.25c0,.25,0,.49,0,.73,0,.44,0,.88,0,1.33,0,.24,0,.49,0,.74A105.72,105.72,0,0,0,131.84,242.44q2.79-.7,5.53-1.56A105.36,105.36,0,0,0,154.14,234,102.46,102.46,0,0,0,172,222.58l.73-.61c1.42-1.14,2.8-2.32,4.16-3.53a104.08,104.08,0,0,0,16.54-18.74,117.29,117.29,0,0,0,7.82-13.51A112.56,112.56,0,0,0,207,171.73a101.64,101.64,0,0,0,4.45-31c-.12-10-.73-19.87-3.87-29.23C211.27,131.24,208.47,151.58,201.17,169.69Z"/><path class="cls-1" d="M236.83,215.1V199.47h2.24V215.1Z"/><path class="cls-1" d="M244.05,215.1V199.47h2.15l3.38,9.42h0v-9.42h2.24V215.1h-2.11l-3.43-9.4h0v9.4Z"/><path class="cls-1" d="M264,204h-2.24v-.5a2.38,2.38,0,0,0-.36-1.33,1.33,1.33,0,0,0-1.22-.56,1.47,1.47,0,0,0-.74.17,1.49,1.49,0,0,0-.46.44,2,2,0,0,0-.25.65,4.59,4.59,0,0,0-.06.76c0,.3,0,.56,0,.77a1.37,1.37,0,0,0,.17.54,1.16,1.16,0,0,0,.38.42,3.65,3.65,0,0,0,.69.35l1.71.68a4.42,4.42,0,0,1,1.21.67,3,3,0,0,1,.73.89,3.91,3.91,0,0,1,.32,1.2,11.4,11.4,0,0,1,.09,1.52,7.55,7.55,0,0,1-.2,1.83,3.8,3.8,0,0,1-.63,1.44,3.23,3.23,0,0,1-1.21,1,4.31,4.31,0,0,1-1.82.35,4,4,0,0,1-1.52-.29,3.63,3.63,0,0,1-1.2-.79,3.8,3.8,0,0,1-.8-1.17,3.53,3.53,0,0,1-.3-1.46v-.83h2.24v.7a1.84,1.84,0,0,0,.36,1.11,1.44,1.44,0,0,0,1.22.49,2,2,0,0,0,.89-.17,1.06,1.06,0,0,0,.49-.47,1.65,1.65,0,0,0,.21-.73q0-.44,0-1a9.49,9.49,0,0,0,0-1,1.68,1.68,0,0,0-.18-.63,1.18,1.18,0,0,0-.4-.4,6,6,0,0,0-.67-.33l-1.6-.66a3.47,3.47,0,0,1-1.94-1.56,5.4,5.4,0,0,1-.5-2.45,5.71,5.71,0,0,1,.24-1.67,3.64,3.64,0,0,1,.73-1.36,3.24,3.24,0,0,1,1.17-.91,3.88,3.88,0,0,1,1.7-.34,3.64,3.64,0,0,1,1.53.31,3.69,3.69,0,0,1,1.19.81,3.36,3.36,0,0,1,1,2.41Z"/><path class="cls-1" d="M270.06,215.1V201.58h-2.59v-2.11h7.41v2.11H272.3V215.1Z"/><path class="cls-1" d="M278.83,215.1V199.47h2.24V215.1Z"/><path class="cls-1" d="M287.61,215.1V201.58H285v-2.11h7.42v2.11h-2.59V215.1Z"/><path class="cls-1" d="M303.57,199.47v12.12a3.62,3.62,0,0,1-.28,1.41,3.45,3.45,0,0,1-.78,1.15,3.57,3.57,0,0,1-1.16.79,3.52,3.52,0,0,1-1.41.29,3.43,3.43,0,0,1-1.39-.29,3.75,3.75,0,0,1-1.15-.79,3.63,3.63,0,0,1-.79-1.15,3.45,3.45,0,0,1-.29-1.41V199.47h2.24v11.9a1.63,1.63,0,0,0,.4,1.22,1.41,1.41,0,0,0,2,0,1.63,1.63,0,0,0,.4-1.22v-11.9Z"/><path class="cls-1" d="M310,215.1V201.58h-2.59v-2.11h7.42v2.11h-2.59V215.1Z"/><path class="cls-1" d="M318.62,203.16a4,4,0,0,1,.33-1.67,3.6,3.6,0,0,1,.88-1.21,3.85,3.85,0,0,1,1.19-.7,4,4,0,0,1,1.35-.24,3.92,3.92,0,0,1,1.35.24,4.12,4.12,0,0,1,1.22.7,3.84,3.84,0,0,1,.86,1.21,4,4,0,0,1,.33,1.67v8.25a4,4,0,0,1-.33,1.69,3.41,3.41,0,0,1-.86,1.16,3.81,3.81,0,0,1-1.22.73,3.92,3.92,0,0,1-1.35.24A4,4,0,0,1,321,215a3.58,3.58,0,0,1-1.19-.73,3.22,3.22,0,0,1-.88-1.16,4,4,0,0,1-.33-1.69Zm2.24,8.25a1.5,1.5,0,0,0,.45,1.2,1.6,1.6,0,0,0,1.06.38,1.63,1.63,0,0,0,1.07-.38,1.5,1.5,0,0,0,.45-1.2v-8.25a1.5,1.5,0,0,0-.45-1.2,1.63,1.63,0,0,0-1.07-.38,1.6,1.6,0,0,0-1.06.38,1.5,1.5,0,0,0-.45,1.2Z"/><path class="cls-1" d="M338,215.1V199.47h2.15l2.87,8.27h0l2.86-8.27h2.17V215.1h-2.24v-9.51h0l-2.22,6.72h-1.12l-2.19-6.72h-.05v9.51Z"/><path class="cls-1" d="M353.07,215.1V199.47h6.67v2.11h-4.43v4.58h3.86v2.11h-3.86v4.59h4.43v2.24Z"/><path class="cls-1" d="M364.09,215.1V199.47h3.31a3.84,3.84,0,0,1,2.93,1.05,4.17,4.17,0,0,1,1,3v7.31a4.33,4.33,0,0,1-1.06,3.23,4.18,4.18,0,0,1-3.06,1Zm2.24-13.52V213h1a1.69,1.69,0,0,0,1.34-.47,2.32,2.32,0,0,0,.39-1.48v-7.53a2.36,2.36,0,0,0-.37-1.43,1.61,1.61,0,0,0-1.36-.5Z"/><path class="cls-1" d="M376.4,215.1V199.47h2.24V215.1Z"/><path class="cls-1" d="M385.18,215.1V201.58h-2.59v-2.11H390v2.11h-2.59V215.1Z"/><path class="cls-1" d="M393.89,215.1V199.47h6.67v2.11h-4.43v4.58H400v2.11h-3.86v4.59h4.43v2.24Z"/><path class="cls-1" d="M404.91,215.1V199.47h3.6q3.94,0,3.95,4.59a5.91,5.91,0,0,1-.43,2.35,3.34,3.34,0,0,1-1.5,1.55l2.41,7.14h-2.37l-2.09-6.68h-1.33v6.68Zm2.24-13.52v4.87h1.27a2.24,2.24,0,0,0,.94-.16,1.23,1.23,0,0,0,.55-.48,2,2,0,0,0,.24-.75,7.84,7.84,0,0,0,0-2.09,2.05,2.05,0,0,0-.26-.78,1.79,1.79,0,0,0-1.58-.61Z"/><path class="cls-1" d="M417.15,215.1V199.47h3.6q3.94,0,3.95,4.59a5.74,5.74,0,0,1-.43,2.35,3.25,3.25,0,0,1-1.5,1.55l2.42,7.14h-2.38l-2.08-6.68h-1.34v6.68Zm2.24-13.52v4.87h1.27a2.29,2.29,0,0,0,.95-.16,1.35,1.35,0,0,0,.55-.48,2.36,2.36,0,0,0,.24-.75,9.13,9.13,0,0,0,0-2.09,2.06,2.06,0,0,0-.27-.78,1.76,1.76,0,0,0-1.58-.61Z"/><path class="cls-1" d="M428.39,215.1l3.49-15.63h1.86l3.49,15.63H435l-.66-3.36h-3.05l-.65,3.36Zm5.53-5.47-1.1-5.66h0l-1.1,5.66Z"/><path class="cls-1" d="M441.14,215.1V199.47h2.15l3.38,9.42h0v-9.42H449V215.1h-2.11l-3.42-9.4h0v9.4Z"/><path class="cls-1" d="M453.87,215.1V199.47h6.67v2.11H456.1v4.58H460v2.11H456.1v4.59h4.44v2.24Zm-24.14-16.33,2.15-3.09H434l2.15,3.09h-1.71l-1.47-2.09-1.47,2.09Z"/><path class="cls-1" d="M464.75,203.16a4,4,0,0,1,.33-1.67,3.6,3.6,0,0,1,.88-1.21,3.85,3.85,0,0,1,1.19-.7,4,4,0,0,1,1.35-.24,3.92,3.92,0,0,1,1.35.24,4.12,4.12,0,0,1,1.22.7,3.84,3.84,0,0,1,.86,1.21,4,4,0,0,1,.33,1.67v8.25a4,4,0,0,1-.33,1.69,3.41,3.41,0,0,1-.86,1.16,3.81,3.81,0,0,1-1.22.73,3.92,3.92,0,0,1-1.35.24,4,4,0,0,1-1.35-.24,3.58,3.58,0,0,1-1.19-.73,3.22,3.22,0,0,1-.88-1.16,4,4,0,0,1-.33-1.69Zm2.24,8.25a1.5,1.5,0,0,0,.45,1.2,1.6,1.6,0,0,0,1.06.38,1.63,1.63,0,0,0,1.07-.38,1.5,1.5,0,0,0,.45-1.2v-8.25a1.5,1.5,0,0,0-.45-1.2,1.63,1.63,0,0,0-1.07-.38,1.6,1.6,0,0,0-1.06.38,1.5,1.5,0,0,0-.45,1.2Z"/><path class="cls-1" d="M484.1,215.1V199.47h3.36a5,5,0,0,1,1.63.24,3.09,3.09,0,0,1,1.27.86,3.39,3.39,0,0,1,.79,1.44,8.73,8.73,0,0,1,.22,2.22,11.05,11.05,0,0,1-.12,1.78,3.59,3.59,0,0,1-.52,1.36,3.29,3.29,0,0,1-1.23,1.2,4.16,4.16,0,0,1-2,.43h-1.15v6.1Zm2.24-13.52v5.31h1.08a2.3,2.3,0,0,0,1.05-.2,1.22,1.22,0,0,0,.55-.55,1.93,1.93,0,0,0,.21-.81c0-.32,0-.68,0-1.07s0-.72,0-1a2.09,2.09,0,0,0-.2-.86,1.2,1.2,0,0,0-.52-.57,2,2,0,0,0-1-.2Z"/><path class="cls-1" d="M494.92,215.1l3.49-15.63h1.87l3.49,15.63h-2.24l-.66-3.36h-3.05l-.66,3.36Zm5.53-5.47L499.36,204h-.05l-1.09,5.66Z"/><path class="cls-1" d="M507.76,215.1V199.47h3.6q3.95,0,3.95,4.59a5.74,5.74,0,0,1-.43,2.35,3.25,3.25,0,0,1-1.5,1.55l2.42,7.14h-2.37l-2.09-6.68H510v6.68ZM510,201.58v4.87h1.27a2.29,2.29,0,0,0,1-.16,1.29,1.29,0,0,0,.55-.48,2.36,2.36,0,0,0,.24-.75,9.13,9.13,0,0,0,0-2.09,2.06,2.06,0,0,0-.27-.78,1.76,1.76,0,0,0-1.58-.61Z"/><path class="cls-1" d="M519,215.1l3.49-15.63h1.86l3.49,15.63H525.6l-.65-3.36H521.9l-.66,3.36Zm5.53-5.47-1.1-5.66h0l-1.1,5.66Z"/><path class="cls-1" d="M537.8,215.1l3.49-15.63h1.87l3.49,15.63h-2.24l-.66-3.36h-3L540,215.1Zm5.53-5.47L542.24,204h0l-1.09,5.66Z"/><path class="cls-1" d="M556.61,215.1l3.49-15.63H562l3.48,15.63h-2.23l-.66-3.36h-3l-.66,3.36Zm5.53-5.47L561,204h0l-1.1,5.66Z"/><path class="cls-1" d="M569.32,203.16a4,4,0,0,1,.33-1.67,3.72,3.72,0,0,1,.87-1.21,3.9,3.9,0,0,1,1.2-.7,3.92,3.92,0,0,1,2.7,0,4.12,4.12,0,0,1,1.22.7,3.82,3.82,0,0,1,.85,1.21,4,4,0,0,1,.33,1.67V204h-2.24v-.79a1.5,1.5,0,0,0-.45-1.2,1.67,1.67,0,0,0-2.12,0,1.5,1.5,0,0,0-.45,1.2v8.25a1.5,1.5,0,0,0,.45,1.2,1.67,1.67,0,0,0,2.12,0,1.5,1.5,0,0,0,.45-1.2v-2.94h-1.77v-2h4v4.92a4,4,0,0,1-.33,1.69,3.39,3.39,0,0,1-.85,1.16,3.81,3.81,0,0,1-1.22.73,3.92,3.92,0,0,1-2.7,0,3.62,3.62,0,0,1-1.2-.73,3.31,3.31,0,0,1-.87-1.16,4,4,0,0,1-.33-1.69Z"/><path class="cls-1" d="M581.69,215.1V199.47h3.6c2.64,0,4,1.53,4,4.59a5.91,5.91,0,0,1-.42,2.35,3.32,3.32,0,0,1-1.51,1.55l2.42,7.14h-2.37l-2.09-6.68h-1.34v6.68Zm2.24-13.52v4.87h1.28a2.24,2.24,0,0,0,.94-.16,1.29,1.29,0,0,0,.55-.48,2,2,0,0,0,.24-.75,7.84,7.84,0,0,0,0-2.09,2.05,2.05,0,0,0-.26-.78,1.79,1.79,0,0,0-1.58-.61Z"/><path class="cls-1" d="M594,215.1V199.47h2.23V215.1Z"/><path class="cls-1" d="M608.42,210.64v1a3.52,3.52,0,0,1-.27,1.37,3.84,3.84,0,0,1-.76,1.15,3.63,3.63,0,0,1-1.13.8,3.28,3.28,0,0,1-1.39.3,4.91,4.91,0,0,1-1.3-.18,3,3,0,0,1-1.18-.61,3.44,3.44,0,0,1-.87-1.13,4,4,0,0,1-.34-1.77v-8.6a4,4,0,0,1,.26-1.43,3.43,3.43,0,0,1,.75-1.14,3.66,3.66,0,0,1,1.15-.76,3.94,3.94,0,0,1,1.48-.27,3.38,3.38,0,0,1,2.57,1,3.72,3.72,0,0,1,.76,1.2,4.08,4.08,0,0,1,.27,1.5V204h-2.24v-.75a1.79,1.79,0,0,0-.37-1.14,1.21,1.21,0,0,0-1-.48,1.16,1.16,0,0,0-1.11.51,2.83,2.83,0,0,0-.27,1.31v8a2.06,2.06,0,0,0,.3,1.14,1.15,1.15,0,0,0,1.06.46,1.65,1.65,0,0,0,.47-.08,1.26,1.26,0,0,0,.47-.25,1.32,1.32,0,0,0,.33-.48,1.94,1.94,0,0,0,.13-.77v-.77Z"/><path class="cls-1" d="M620.38,199.47v12.12a3.62,3.62,0,0,1-.27,1.41,3.45,3.45,0,0,1-.78,1.15,3.68,3.68,0,0,1-1.16.79,3.52,3.52,0,0,1-1.41.29,3.43,3.43,0,0,1-1.39-.29,3.82,3.82,0,0,1-1.94-1.94,3.45,3.45,0,0,1-.29-1.41V199.47h2.24v11.9a1.63,1.63,0,0,0,.4,1.22,1.41,1.41,0,0,0,2,0,1.67,1.67,0,0,0,.4-1.22v-11.9Z"/><path class="cls-1" d="M625.39,215.1V199.47h2.23v13.39h4.44v2.24Z"/><path class="cls-1" d="M637.87,215.1V201.58h-2.59v-2.11h7.42v2.11h-2.59V215.1Z"/><path class="cls-1" d="M653.83,199.47v12.12a3.56,3.56,0,0,1-1.06,2.56,3.57,3.57,0,0,1-1.16.79,3.51,3.51,0,0,1-1.4.29,3.44,3.44,0,0,1-1.4-.29,3.75,3.75,0,0,1-1.15-.79,3.63,3.63,0,0,1-.79-1.15,3.45,3.45,0,0,1-.29-1.41V199.47h2.24v11.9a1.63,1.63,0,0,0,.4,1.22,1.41,1.41,0,0,0,2,0,1.63,1.63,0,0,0,.4-1.22v-11.9Z"/><path class="cls-1" d="M658.83,215.1V199.47h3.6q3.95,0,4,4.59a5.74,5.74,0,0,1-.43,2.35,3.3,3.3,0,0,1-1.5,1.55l2.41,7.14h-2.37l-2.08-6.68h-1.34v6.68Zm2.24-13.52v4.87h1.27a2.29,2.29,0,0,0,.95-.16,1.26,1.26,0,0,0,.54-.48,2.13,2.13,0,0,0,.25-.75,9.13,9.13,0,0,0,0-2.09,2.25,2.25,0,0,0-.27-.78,1.78,1.78,0,0,0-1.58-.61Z"/><path class="cls-1" d="M670.07,215.1l3.49-15.63h1.86l3.49,15.63h-2.24l-.66-3.36h-3l-.66,3.36Zm5.53-5.47L674.5,204h0l-1.1,5.66Z"/><path class="cls-1" d="M682.77,216.72v-3.86H685v2.24Z"/><path class="cls-1" d="M237.12,245.71l3.5-15.66h1.87L246,245.71h-2.24l-.66-3.36H240l-.66,3.36Zm5.54-5.47-1.1-5.68h0l-1.1,5.68Z"/><path class="cls-1" d="M250,245.71V230.05h2.15l2.89,8.29h0l2.86-8.29h2.18v15.66h-2.25v-9.52h0l-2.22,6.73h-1.12l-2.2-6.73h-.05v9.52Z"/><path class="cls-1" d="M265.12,245.71V230.05h3.28a4.62,4.62,0,0,1,1.84.33,3.44,3.44,0,0,1,1.24.88,3.37,3.37,0,0,1,.7,1.27,5.57,5.57,0,0,1,.2,1.48v.57a4.72,4.72,0,0,1-.1,1.08,2.52,2.52,0,0,1-.29.77,3.13,3.13,0,0,1-1.15,1.06,2.41,2.41,0,0,1,1.17,1.1,4.34,4.34,0,0,1,.37,2v.88a4.55,4.55,0,0,1-1,3.17,4.13,4.13,0,0,1-3.2,1.09Zm2.25-13.55v4.31h1a1.71,1.71,0,0,0,1.51-.56,2.94,2.94,0,0,0,.38-1.64,2.44,2.44,0,0,0-.43-1.58,1.9,1.9,0,0,0-1.55-.53Zm0,6.29v5h1a2.22,2.22,0,0,0,1.06-.2,1.37,1.37,0,0,0,.59-.55,2.07,2.07,0,0,0,.24-.83c0-.33,0-.68,0-1.06a7.62,7.62,0,0,0-.06-1,2,2,0,0,0-.27-.75,1.16,1.16,0,0,0-.59-.45,2.71,2.71,0,0,0-1-.15Z"/><path class="cls-1" d="M277.47,245.71V230.05h2.24v15.66Z"/><path class="cls-1" d="M284.79,245.71V230.05h6.69v2.11H287v4.6h3.87v2.11H287v4.6h4.44v2.24Z"/><path class="cls-1" d="M295.75,245.71V230.05h2.15l3.39,9.44h0v-9.44h2.24v15.66h-2.11L298,236.3H298v9.41Z"/><path class="cls-1" d="M310,245.71V232.16h-2.59v-2.11h7.43v2.11h-2.59v13.55Z"/><path class="cls-1" d="M318.72,245.71V230.05h6.68v2.11H321v4.6h3.87v2.11H321v4.6h4.44v2.24Z"/><path class="cls-1" d="M336.75,245.71V230.05h6.69v2.11H339v4.6h3.87v2.11H339v4.6h4.44v2.24Z"/><path class="cls-1" d="M354.79,245.71V230.05h3.33a3.81,3.81,0,0,1,2.93,1.06,4.16,4.16,0,0,1,1,3v7.32a4.38,4.38,0,0,1-1.06,3.25,4.2,4.2,0,0,1-3.07,1ZM357,232.16V243.6h1a1.64,1.64,0,0,0,1.34-.47,2.27,2.27,0,0,0,.4-1.49V234.1a2.36,2.36,0,0,0-.37-1.43,1.6,1.6,0,0,0-1.37-.51Z"/><path class="cls-1" d="M367.07,245.71V230.05h6.69v2.11h-4.45v4.6h3.88v2.11h-3.88v4.6h4.45v2.24Z"/><path class="cls-1" d="M385.37,234.56h-2.24v-.51a2.43,2.43,0,0,0-.36-1.33,1.36,1.36,0,0,0-1.22-.56,1.35,1.35,0,0,0-1.21.62,2,2,0,0,0-.25.65,4.59,4.59,0,0,0-.06.76c0,.3,0,.56,0,.77a1.42,1.42,0,0,0,.17.55,1.06,1.06,0,0,0,.38.41,3.61,3.61,0,0,0,.69.36L383,237a4.17,4.17,0,0,1,1.21.67,3,3,0,0,1,.73.89,4.22,4.22,0,0,1,.33,1.2,13.89,13.89,0,0,1,.08,1.53,8.25,8.25,0,0,1-.19,1.84,4.13,4.13,0,0,1-.64,1.44,3.12,3.12,0,0,1-1.21,1,4.2,4.2,0,0,1-1.83.36,4,4,0,0,1-1.52-.29,3.58,3.58,0,0,1-1.21-.79,4,4,0,0,1-.8-1.18,3.53,3.53,0,0,1-.3-1.46v-.84h2.25V242a1.84,1.84,0,0,0,.36,1.11,1.41,1.41,0,0,0,1.22.49,2,2,0,0,0,.89-.16,1.16,1.16,0,0,0,.5-.48,1.79,1.79,0,0,0,.21-.73q0-.43,0-1a9.37,9.37,0,0,0,0-1,1.68,1.68,0,0,0-.18-.64,1.31,1.31,0,0,0-.41-.4,6,6,0,0,0-.67-.33l-1.6-.66a3.54,3.54,0,0,1-2-1.57,6,6,0,0,1-.25-4.12,3.81,3.81,0,0,1,.72-1.37,3.37,3.37,0,0,1,1.18-.91,3.88,3.88,0,0,1,1.7-.34,3.64,3.64,0,0,1,1.53.31,3.74,3.74,0,0,1,1.2.81,3.37,3.37,0,0,1,1,2.42Z"/><path class="cls-1" d="M390,245.71V230.05h6.69v2.11h-4.45v4.6h3.88v2.11h-3.88v4.6h4.45v2.24Z"/><path class="cls-1" d="M400.91,245.71V230.05h2.15l3.39,9.44h0v-9.44h2.25v15.66h-2.11l-3.44-9.41h0v9.41Z"/><path class="cls-1" d="M421.28,230.05l-3.21,15.66h-2l-3.19-15.66h2.37L417.05,241h.05l1.8-10.93Z"/><path class="cls-1" d="M425.39,233.75a4,4,0,0,1,.33-1.67,3.41,3.41,0,0,1,.88-1.21,3.63,3.63,0,0,1,1.2-.71,3.95,3.95,0,0,1,2.71,0,4.06,4.06,0,0,1,1.22.71,3.63,3.63,0,0,1,.86,1.21,4,4,0,0,1,.33,1.67V242a4,4,0,0,1-.33,1.69,3.56,3.56,0,0,1-.86,1.17,3.89,3.89,0,0,1-1.22.72,3.8,3.8,0,0,1-2.71,0,3.5,3.5,0,0,1-1.2-.72,3.35,3.35,0,0,1-.88-1.17,4,4,0,0,1-.33-1.69Zm2.25,8.27a1.5,1.5,0,0,0,.45,1.2,1.6,1.6,0,0,0,1.06.38,1.63,1.63,0,0,0,1.07-.38,1.5,1.5,0,0,0,.45-1.2v-8.27a1.48,1.48,0,0,0-.45-1.2,1.59,1.59,0,0,0-1.07-.39,1.56,1.56,0,0,0-1.06.39,1.48,1.48,0,0,0-.45,1.2Z"/><path class="cls-1" d="M437.8,245.71V230.05H440v13.42h4.45v2.24Z"/><path class="cls-1" d="M456.46,230.05l-3.22,15.66h-2l-3.19-15.66h2.38L452.23,241h0l1.8-10.93Z"/><path class="cls-1" d="M460.77,245.71V230.05H463v15.66Z"/><path class="cls-1" d="M468.09,245.71V230.05h2.16l2.88,8.29h.05l2.86-8.29h2.17v15.66H476v-9.52h0l-2.23,6.73h-1.12l-2.2-6.73h0v9.52Z"/><path class="cls-1" d="M483.23,245.71V230.05h6.69v2.11h-4.45v4.6h3.88v2.11h-3.88v4.6h4.45v2.24Z"/><path class="cls-1" d="M494.19,245.71V230.05h2.15l3.39,9.44h0v-9.44H502v15.66h-2.11l-3.44-9.41h0v9.41Z"/><path class="cls-1" d="M508.42,245.71V232.16h-2.6v-2.11h7.44v2.11h-2.6v13.55Z"/><path class="cls-1" d="M517,233.75a4,4,0,0,1,.33-1.67,3.41,3.41,0,0,1,.88-1.21,3.63,3.63,0,0,1,1.2-.71,3.95,3.95,0,0,1,2.71,0,4.06,4.06,0,0,1,1.22.71,3.61,3.61,0,0,1,.85,1.21,4,4,0,0,1,.33,1.67V242a4,4,0,0,1-.33,1.69,3.53,3.53,0,0,1-.85,1.17,3.89,3.89,0,0,1-1.22.72,3.8,3.8,0,0,1-2.71,0,3.5,3.5,0,0,1-1.2-.72,3.35,3.35,0,0,1-.88-1.17A4,4,0,0,1,517,242Zm2.24,8.27a1.48,1.48,0,0,0,.46,1.2,1.6,1.6,0,0,0,1.06.38,1.63,1.63,0,0,0,1.07-.38,1.5,1.5,0,0,0,.45-1.2v-8.27a1.48,1.48,0,0,0-.45-1.2,1.59,1.59,0,0,0-1.07-.39,1.56,1.56,0,0,0-1.06.39,1.45,1.45,0,0,0-.46,1.2Z"/></g></g></svg>