<?xml version="1.0" encoding="UTF-8"?>
<svg id="Layer_2" data-name="Layer 2" xmlns="http://www.w3.org/2000/svg" viewBox="0 0 628.76 165.16">
  <defs>
    <style>
      .cls-1, .cls-2 {
        opacity: .3;
      }

      .cls-1, .cls-3 {
        fill: #f9b233;
      }

      .cls-2, .cls-4 {
        fill: #f39200;
      }

      .cls-5 {
        fill: #231f20;
        fill-rule: evenodd;
      }

      .cls-3, .cls-4 {
        opacity: .4;
      }

      .cls-6 {
        fill: #9f1d34;
      }
    </style>
  </defs>
  <g id="Camada_1" data-name="Camada 1">
    <g>
      <g>
        <path class="cls-6" d="m101.26,62.49c-1.31,1.36-2.76,2.54-4.37,3.48-5,2.91-14.6,3.42-22.92.65l-9.57,22.67-10.32-22.67c-30.95,9.21-37.99-18.63-41.15-46.46C4.89,29.16,0,41.04,0,54.07c0,28.15,22.82,50.98,50.98,50.98,2.47,0,4.91-.19,7.29-.53,1.84-3.44,3.91-7.01,6.12-11.14,1.51,2.89,2.82,5.69,4.31,8.5,16.87-6.26,29.53-21.2,32.55-39.39"/>
        <path class="cls-6" d="m51.53,48.18c10.03,8.36,10.6-4.53,10.98-10.74.16-2.57.2-4.46-.39-6.7-.27-1.05-.85-1.68-2.84-3.11,3.61-4.75,8.87-3.86,8.38.52-1.02,9.11-3.07,28.09,6.09,21.34,2.47-1.82,18.32-17.24,21.4-20.87C86.34,13.35,69.86,3.08,50.98,3.08c-11.31,0-21.75,3.68-30.21,9.92,5.45,6.11,11.16,13,15.79,18.6,2.75,3.33,11.01,13.28,14.96,16.58"/>
      </g>
      <path class="cls-5" d="m124.93,48.95c-2,0-4.21-.58-5.63-2.07-1.41-1.48-1.98-3.92-1.98-5.9v-12.71h2.52v12.29c0,3.62,1.21,5.91,5.09,5.91s5.22-2.42,5.22-5.91v-12.29h2.52v12.71c0,2.01-.68,4.41-2.08,5.89-1.4,1.48-3.68,2.08-5.66,2.08h0Zm85.27,36.19c-2.74,0-5.15-.9-6.83-3.11-1.57-2.08-2.08-4.71-2.08-7.26s.52-5.17,2.08-7.26c1.67-2.24,4.08-3.17,6.83-3.17s5.18.91,6.85,3.14c1.57,2.09,2.08,4.73,2.08,7.29s-.51,5.19-2.08,7.27c-1.68,2.22-4.11,3.11-6.85,3.11h0Zm-37.45-24.28h-3.04l4.59-5.27h3.01l-4.56,5.27h0Zm-4.11,5.87v6.06h8.55v2.46h-8.54v7.35s11.05,0,11.05,0v2.43h-13.52v-20.77h13.22v2.45h-10.76Zm-28.7,0v6.06h8.56v2.46h-8.54v7.35s11.05,0,11.05,0v2.43h-13.52v-20.77h13.22v2.45h-10.76Zm-17.04,18.24h-5.82v-20.69h5.82c1.96,0,4.74.13,6.53,1.01,3.61,1.79,4.64,5.58,4.64,9.35s-.99,7.62-4.65,9.33c-1.85.86-4.51,1.01-6.52,1.01h0Zm189.94-54.23v6.06h8.56v2.46h-8.54v7.35s11.05,0,11.05,0v2.43h-13.52v-20.77h13.22v2.45h-10.76Zm-124.91,0v6.06h8.56v2.46h-8.54v7.35s11.05,0,11.05,0v2.43h-13.52v-20.77h13.22v2.45h-10.76Zm107.86,18.24h-5.82v-20.69h5.82c1.96,0,4.74.13,6.53,1.01,3.61,1.79,4.64,5.58,4.64,9.35s-.99,7.62-4.65,9.33c-1.85.86-4.51,1.01-6.52,1.01h0Zm-39.46,0h-5.82v-20.69h5.82c1.96,0,4.74.13,6.53,1.01,3.61,1.79,4.64,5.58,4.64,9.35s-.99,7.62-4.65,9.33c-1.85.86-4.51,1.01-6.52,1.01h0Zm-2.91,29.91h-8.18s-2.38,6.18-2.38,6.18h-2.61l8.04-20.81h2.16l7.86,20.81h-2.59l-2.3-6.18h0Zm28.71-35.99h-8.18s-2.38,6.18-2.38,6.18h-2.61l8.04-20.81h2.16l7.86,20.81h-2.59l-2.3-6.18h0Zm-48.19.29c0-.75-.34-1.65-.9-2.16-.8-.73-2.76-1.25-3.81-1.56l-.42-.12c-1.44-.42-3.33-.99-4.48-1.98-1.07-.93-1.5-2.35-1.5-3.73,0-1.68.61-3.1,1.96-4.11,1.29-.97,2.85-1.33,4.44-1.33,1.73,0,3.41.42,4.74,1.56,1.34,1.14,1.94,2.7,2.03,4.44l.03.6-2.66.02v-.57c-.04-1.25-.19-1.77-1.09-2.63-.73-.7-2.14-.99-3.1-.99-.86,0-2.1.21-2.75.84-.7.67-.96,1.21-.96,2.21,0,.67.26,1.43.77,1.89.72.66,2.7,1.2,3.66,1.48l.39.12c1.56.46,3.45,1.04,4.69,2.12,1.16,1.01,1.56,2.46,1.56,3.96,0,1.82-.69,3.34-2.15,4.44-1.39,1.04-3.06,1.39-4.77,1.39-1.9,0-3.57-.45-5.03-1.69-1.45-1.23-2.04-2.89-2.14-4.76l-.03-.6,2.59-.02v.57c.04,1.14.43,2.12,1.26,2.9.87.8,2.27,1.18,3.42,1.18.95,0,2.43-.26,3.14-.94.77-.74,1.12-1.41,1.12-2.51h0Zm1.16,31.54c1.3.69,2.24,1.89,2.24,3.46v6.87h-2.55v-4.98c0-.34,0-.67,0-1.01v-.31c-.01-1.06-.31-1.61-1.21-2.13-.92-.54-2.06-.62-3.11-.62h-4.99v9.05h-2.56v-20.83h7.68c1.53,0,3.49.17,4.8,1.02,1.6,1.05,2.09,2.88,2.09,4.7,0,2.05-.71,3.75-2.4,4.78h0Zm-29.08-34.71v9.05h-2.56v-20.83h7.68c1.53,0,3.49.17,4.8,1.02,1.6,1.05,2.08,2.88,2.08,4.7,0,2.05-.71,3.75-2.4,4.78,1.3.69,2.24,1.89,2.24,3.46v6.87h-2.55v-4.98c0-.34,0-.67,0-1.01v-.31c-.01-1.06-.31-1.61-1.21-2.13-.93-.54-2.06-.62-3.11-.62h-4.99Zm-32.05,3.98l5.83-15.73h2.65s-7.67,20.75-7.67,20.75h-1.67l-7.65-20.74h2.65s5.86,15.73,5.86,15.73h0Zm16.91,35.99l5.83-15.73h2.65s-7.67,20.75-7.67,20.75h-1.67l-7.65-20.74h2.65s5.86,15.73,5.86,15.73h0Zm51.04-31.02v-20.76h2.56s0,20.76,0,20.76h-2.56Zm-82.27,0v-20.76h2.56s0,20.76,0,20.76h-2.56Zm-18.83-15.87v16.05h-2.56v-20.81h2.31l11.21,16.06-.03-16.06h2.58v20.81h-2.3l-11.21-16.05h0Zm69.37,33.72c-2.17,0-3.61.63-4.87,2.42-1.22,1.71-1.41,3.45-1.41,5.52s.28,3.89,1.51,5.61c1.26,1.78,2.62,2.27,4.78,2.27s3.63-.58,4.9-2.36c1.2-1.69,1.37-3.5,1.37-5.52,0-1.89-.24-3.95-1.39-5.51-1.29-1.76-2.7-2.42-4.88-2.42h0Zm-90.52,15.77h3.44c1.67,0,4.04-.12,5.55-.91,2.26-1.19,2.8-4.54,2.85-6.84.05-2.01-.13-4.52-1.64-6.03-.97-.97-1.9-1.56-3.25-1.81-.47-.09-.97-.13-1.45-.15-.68-.04-1.37-.05-2.06-.05h-3.44v15.8h0Zm172.9-35.99h3.44c1.67,0,4.04-.12,5.55-.91,2.26-1.19,2.8-4.54,2.85-6.84.05-2.01-.13-4.52-1.64-6.03-.97-.97-1.9-1.56-3.25-1.81-.47-.09-.97-.13-1.45-.15-.68-.04-1.37-.05-2.06-.05h-3.44v15.8h0Zm-39.46,0h3.44c1.67,0,4.04-.12,5.55-.91,2.26-1.19,2.8-4.54,2.85-6.84.05-2.01-.13-4.52-1.64-6.03-.97-.97-1.9-1.56-3.25-1.81-.47-.09-.97-.13-1.45-.15-.68-.04-1.37-.05-2.06-.05h-3.44v15.8h0Zm-6.93,29.83h6.27l-3.1-8.18-3.17,8.18h0Zm28.71-35.99h6.27l-3.1-8.18-3.17,8.18h0Zm-49.42,33.06h5.21c1.22,0,2.57-.32,3.46-1.21.61-.61.89-1.4.88-2.26-.02-1.97-.66-2.87-2.63-3.21-.29-.05-.6-.07-.88-.09-.45-.03-.9-.04-1.35-.04h-4.68v6.81h0Zm-19.46-35.99h5.21c1.22,0,2.57-.32,3.46-1.21.61-.61.89-1.4.88-2.26-.02-1.97-.66-2.87-2.63-3.21-.28-.05-.6-.07-.88-.09-.45-.03-.9-.04-1.35-.04h-4.68v6.81Z"/>
    </g>
    <g>
      <path class="cls-3" d="m409.83,88.33c-7.09,0-14.57,1.05-22.45,3.15l7.88-40.97h37.03c6.56,0,13.26.27,20.09.79,6.83.53,13.52,1.18,20.09,1.97V8.76h-116.6c0,15.76-1.91,33.03-5.71,51.8-3.81,18.78-8.6,36.18-14.38,52.19l27.97,27.97c5.25-3.41,10.3-5.97,15.17-7.68,4.86-1.7,10.04-2.56,15.56-2.56,9.45,0,17.14,3.22,23.04,9.65,5.91,6.44,8.86,14.51,8.86,24.22,0,.27-.02.54-.03.81h48.66c.13-2.34.21-4.71.21-7.11,0-19.43-6.11-35.91-18.32-49.44-12.21-13.52-27.91-20.29-47.07-20.29Z"/>
      <path class="cls-1" d="m605.45,50.52c-14.97-29.41-39.53-44.12-73.66-44.12s-58.96,14.57-73.66,43.72c-11.03,21.8-16.54,51.74-16.54,89.81,0,8.84.32,17.24.94,25.23h49.87c-.52-7.61-.78-15.87-.78-24.84,0-24.16,1.84-43.19,5.52-57.12,6.3-23.89,17.98-35.85,35.06-35.85s29.15,12.08,35.45,36.24c3.41,13.13,5.12,32.04,5.12,56.72,0,8.98-.26,17.26-.78,24.84h49.5c.6-7.87.91-16.13.91-24.84,0-37.81-5.65-67.75-16.94-89.81Z"/>
    </g>
    <g>
      <g>
        <polygon class="cls-4" points="349.12 113.3 353.26 117.44 394.81 79.74 398.76 59.18 349.12 113.3"/>
        <polygon class="cls-4" points="344.93 109.11 347.41 111.59 432.95 2.36 397.24 2.36 344.93 109.11"/>
        <path class="cls-4" d="m451.43,44.48c2.44.12,4.87.24,7.35.43,6.57.51,13.02,1.14,19.36,1.89l.73-.45v-23.11l-27.43,21.25Z"/>
        <path class="cls-4" d="m421.15,82.11c-1.62-.1-3.25-.17-4.92-.17-4.85,0-9.9.53-15.11,1.51l-46.13,35.73,2.42,2.42,63.73-39.49Z"/>
        <polygon class="cls-4" points="434.06 44.12 478.86 3.46 478.86 2.36 450.87 2.36 412.58 44.12 434.06 44.12"/>
        <path class="cls-4" d="m430.94,145.82c1.21,3.72,1.84,7.75,1.84,12.14,0,.27-.02.54-.02.81h48.66c.13-2.34.21-4.71.21-7.11,0-1.31-.03-2.61-.09-3.89l-50.6-1.94Z"/>
        <path class="cls-4" d="m384.52,2.36h-22.25c0,15.76-1.91,33.03-5.71,51.8-3.81,18.78-8.6,36.18-14.38,52.19l.77.77L384.52,2.36Z"/>
        <path class="cls-4" d="m367.92,132.1l9.52-2.02c2.68-1.38,5.3-2.53,7.87-3.44,4.86-1.7,10.04-2.56,15.56-2.56,1.33,0,2.61.08,3.87.21l65.02-13.79c-1.92-2.87-4.07-5.63-6.46-8.28-.78-.86-1.57-1.69-2.37-2.5l-95.18,30.21,2.17,2.17Z"/>
        <path class="cls-4" d="m451.74,92.14c-5.21-3.51-10.9-6.11-17.05-7.81l-75.52,39.02,4.5,4.5,88.07-35.71Z"/>
        <path class="cls-4" d="m475.33,120.58l-58.18,7.67c2.46,1.45,4.72,3.26,6.76,5.48,1.36,1.49,2.55,3.07,3.6,4.73l52.72-2.08c-1.04-5.56-2.68-10.82-4.9-15.8Z"/>
      </g>
      <g>
        <path class="cls-2" d="m552.16.93c-4.47-.6-9.11-.93-13.97-.93-16.03,0-29.89,3.2-41.64,9.53l-18.25,14.13c-5.27,5.67-9.88,12.34-13.77,20.06-2.41,4.77-4.54,9.94-6.42,15.49L552.16.93Z"/>
        <path class="cls-2" d="m505.49,70.35c6.63-19.56,17.65-29.38,33.1-29.38,7.97,0,14.76,2.59,20.4,7.7l44.52-18.05c-6.7-9.02-14.71-16.05-24.02-21.08l-125.67,64.92c-1.32,5.73-2.41,11.79-3.28,18.18l54.96-22.28Z"/>
        <path class="cls-2" d="m627.11,100.56l-48.78,6.43c.52,7.65.8,16.14.83,25.48l49.61-1.96c-.1-10.61-.64-20.61-1.65-29.95Z"/>
        <path class="cls-2" d="m501.36,86.89l-52.06,16.52c-.35,3.77-.63,7.63-.84,11.6l50.7-10.75c.54-6.32,1.27-12.12,2.2-17.37Z"/>
        <path class="cls-2" d="m448.22,146.48c.16,4.2.39,8.29.7,12.28h49.87c-.22-3.32-.39-6.78-.52-10.36l-50.05-1.92Z"/>
        <path class="cls-2" d="m614.98,50.83l-44.99,14.28c1.53,3.63,2.88,7.65,4.04,12.1.84,3.22,1.57,6.79,2.2,10.71l47.25-10.02c-2.17-9.95-5.01-18.96-8.51-27.05Z"/>
        <path class="cls-2" d="m578.77,151.5c-.11,2.48-.24,4.92-.4,7.26h49.5c.13-1.77.25-3.56.35-5.36l-49.46-1.9Z"/>
        <path class="cls-2" d="m498.01,133.93c0-5.76.11-11.21.32-16.38l-50.22,6.62c-.08,3.07-.13,6.18-.13,9.37,0,1.39.02,2.75.04,4.12l50-1.98c0-.59-.01-1.16-.01-1.75Z"/>
      </g>
    </g>
  </g>
</svg>